<?xml version="1.0" standalone="no"?>
<!DOCTYPE svg PUBLIC "-//W3C//DTD SVG 20010904//EN"
 "http://www.w3.org/TR/2001/REC-SVG-20010904/DTD/svg10.dtd">
<svg version="1.0" xmlns="http://www.w3.org/2000/svg"
 width="700.000000pt" height="700.000000pt" viewBox="0 0 700.000000 700.000000"
 preserveAspectRatio="xMidYMid meet">
<metadata>
Created by potrace 1.11, written by Peter Selinger 2001-2013
</metadata>
<g transform="translate(0.000000,700.000000) scale(0.100000,-0.100000)"
fill="#000000" stroke="none">
<path d="M555 6369 c-118 -15 -212 -96 -246 -211 -9 -32 -14 -1928 -5 -1973 2
-11 7 -47 10 -80 23 -202 121 -433 262 -616 56 -74 175 -191 244 -243 30 -22
57 -43 60 -46 8 -9 139 -90 145 -90 3 0 22 -10 43 -23 125 -77 372 -162 602
-208 65 -12 84 -24 75 -46 -8 -23 -19 -392 -19 -658 1 -367 16 -622 48 -801 2
-10 7 -41 10 -67 12 -80 65 -257 98 -327 130 -275 352 -438 648 -477 34 -4
200 -4 225 1 11 2 40 7 65 11 111 17 278 79 385 143 231 138 350 289 476 604
38 94 176 500 183 537 7 40 30 101 37 101 9 0 89 -48 163 -98 21 -15 47 -31
57 -37 10 -5 63 -38 116 -71 121 -76 157 -88 244 -82 132 10 224 93 265 238 7
25 33 119 59 210 48 167 102 362 109 390 3 8 29 103 59 210 31 107 60 213 66
235 20 75 15 76 192 -40 178 -117 218 -136 294 -136 60 0 103 12 159 45 59 34
118 115 130 177 3 19 49 232 81 384 10 43 26 123 30 146 3 13 18 87 34 164 16
77 32 151 35 165 2 14 17 81 31 150 45 212 85 403 85 409 0 3 27 -34 59 -84
65 -101 86 -123 151 -157 63 -33 185 -33 251 0 124 61 191 201 160 329 -7 26
-44 102 -84 167 -40 66 -83 139 -97 161 -178 297 -292 476 -326 510 -86 88
-218 108 -339 51 -33 -16 -241 -118 -462 -228 -424 -210 -460 -233 -503 -318
-32 -62 -36 -166 -9 -237 28 -73 104 -145 175 -168 99 -31 161 -20 319 58
l138 68 -7 -33 c-4 -18 -9 -44 -12 -58 -3 -14 -20 -97 -39 -185 -19 -88 -37
-173 -40 -190 -3 -16 -8 -39 -10 -50 -3 -11 -22 -105 -44 -210 -22 -104 -45
-213 -51 -242 l-11 -51 -157 103 c-91 60 -178 109 -207 117 -93 27 -203 3
-271 -60 -61 -56 -81 -102 -149 -347 -75 -270 -178 -635 -199 -710 -8 -27 -25
-86 -37 -130 -11 -44 -24 -85 -28 -91 -4 -8 -60 22 -156 83 -82 53 -159 100
-169 107 -11 6 -38 23 -60 38 -39 25 -41 26 -54 7 -11 -16 -16 -17 -35 -7 -12
7 -58 12 -102 12 -86 0 -130 -16 -194 -70 -51 -43 -77 -100 -125 -275 -161
-588 -285 -922 -378 -1024 -87 -95 -273 -169 -399 -158 -157 13 -224 125 -264
443 -4 30 -9 63 -11 72 -18 101 -25 850 -9 1103 4 72 7 140 6 153 0 16 5 22
19 22 39 0 217 53 320 95 233 95 413 215 585 389 99 101 124 130 191 232 122
185 194 377 220 589 4 33 8 479 8 990 2 999 3 983 -49 1065 -33 52 -90 97
-150 117 -43 14 -99 16 -405 16 -246 0 -371 -3 -406 -12 -71 -17 -140 -73
-180 -146 -31 -55 -33 -65 -31 -140 2 -64 8 -90 29 -131 39 -75 110 -131 192
-151 12 -3 109 -6 216 -7 l195 -1 0 -780 c0 -731 -1 -784 -19 -845 -42 -148
-116 -271 -230 -385 -105 -104 -174 -154 -301 -217 -245 -123 -469 -149 -795
-95 -153 26 -435 143 -519 216 -13 12 -27 21 -31 21 -12 0 -142 134 -172 178
-47 68 -96 181 -114 262 -14 66 -17 172 -18 858 0 430 1 783 4 783 3 1 91 3
195 4 216 2 265 13 333 71 108 92 137 240 71 362 -29 55 -106 119 -164 139
-42 14 -100 16 -385 17 -184 1 -357 -2 -385 -5z"/>
</g>
</svg>
